<svg xmlns="http://www.w3.org/2000/svg" viewBox="0 0 512 512"><path d="M467 391c24.813 0 45-20.187 45-45V106c0-24.813-20.187-45-45-45H195c-24.813 0-45 20.187-45 45v45H91.056c-20.75 0-34.711 13.995-38.489 21.877L4.417 273.372C1.629 279.191 0 285.998 0 292.816V346c0 24.813 20.187 45 45 45h15a59.608 59.608 0 008.072 30H15c-8.284 0-15 6.716-15 15s6.716 15 15 15h482c8.284 0 15-6.716 15-15s-6.716-15-15-15h-53.072A59.608 59.608 0 00452 391h15zM53.193 241H90v30H38.819l14.374-30zM120 421c-16.542 0-30-13.458-30-30s13.458-30 30-30 30 13.458 30 30-13.458 30-30 30zm30-81.928A59.608 59.608 0 00120 331c-22.159 0-41.537 12.084-51.928 30H45c-8.271 0-15-6.729-15-15v-45h75c8.284 0 15-6.716 15-15v-60c0-8.284-6.716-15-15-15H67.567l11.518-24.039A14.966 14.966 0 0191.056 181H150v158.072zM171.928 421A59.608 59.608 0 00180 391h152a59.608 59.608 0 008.072 30H171.928zM392 421c-16.542 0-30-13.458-30-30s13.458-30 30-30 30 13.458 30 30-13.458 30-30 30zm0-90c-22.159 0-41.537 12.084-51.928 30H180V106c0-8.271 6.729-15 15-15h272c8.271 0 15 6.729 15 15v240c0 8.271-6.729 15-15 15h-23.072c-10.391-17.916-29.769-30-51.928-30z"/><path d="M437 121H225c-8.284 0-15 6.745-15 15v150c0 8.284 6.716 15 15 15h212c8.284 0 15-6.716 15-15V136c0-8.346-6.829-15-15-15zm-40.842 30L331 206.323 265.842 151h130.316zM422 271H240V168.414l81.292 69.021a15 15 0 0019.417 0L422 168.414V271z"/></svg>