<svg xmlns="http://www.w3.org/2000/svg" viewBox="0 0 512.009 512.009"><path d="M461.16 379.336l.952.504-.952-.504zm-411.257.511l1.152-.61-1.152.61zm430.993 9.945c-4-2.105-19.492-10.324-19.737-10.456-6.973-3.693-12.124-6.387-17.144-8.951-13.603-6.95-24.806-12.177-35.742-16.522-12.951-5.146-25.297-8.917-37.762-11.406l-8.235-49.29c13.751-24.859 21.74-54.504 21.74-85.71v-38.631c12.929-10.639 21.329-27.157 21.329-45.839C405.346 55.386 353.806 0 289.421 0h-66.816C158.22 0 106.68 55.386 106.68 122.987c0 18.689 8.407 35.214 21.338 45.853v38.616c0 31.207 7.986 60.849 21.732 85.707l-8.235 49.29c-12.488 2.493-24.853 6.271-37.826 11.43-10.923 4.344-22.112 9.567-35.707 16.515-4.964 2.537-10.055 5.2-16.928 8.839-.381.205-15.971 8.477-19.917 10.553C12.007 399.86.004 419.737.004 441.352v49.323c0 11.782 9.551 21.333 21.333 21.333H490.67c11.782 0 21.333-9.551 21.333-21.333v-49.323c.001-21.617-11.982-41.492-31.107-51.56zm-150.543-28.786l-26.392 28.533-15.936-31.873c13.824-4.398 26.709-11.568 38.274-20.933l4.054 24.273zm-74.336-41.017c-15.348 0-30.109-5.886-42.916-16.064-.254-.203-.509-.404-.762-.611-.224-.182-.445-.368-.668-.553-7.827-6.53-14.981-14.79-21.13-24.583l-1.001-1.457-.113-.143c-11.621-19.158-18.744-43.207-18.744-69.124V181.1a45.079 45.079 0 006.751-.837c30.704-6.468 55.131-9.354 77.929-9.5 1.726-.022 1.726-.022 3.231-.055 2.284-.05 3.241-.06 4.197-.036 21.141.463 40.592 3.207 71.744 9.579 2.305.464 4.558.738 6.814.848v26.358c0 25.91-7.123 49.956-18.744 69.114a63.38 63.38 0 01-.121.153l-1.001 1.457c-6.146 9.79-13.299 18.048-21.123 24.577-.226.188-.452.377-.679.562-.248.203-.498.4-.748.599-12.807 10.18-27.57 16.07-42.916 16.07zm-32.025 37.674l-15.937 31.873-6.232-6.737-20.151-21.794 4.055-24.271c11.562 9.362 24.444 16.531 38.265 20.929zM213.346 43.332V64c0 11.776 9.536 21.333 21.333 21.333h42.667c11.797 0 21.333-9.557 21.333-21.333V43.332c35.822 4.984 64 38.453 64 79.655 0 6.289-2.993 11.314-7.062 13.828-.54.191-1.079.398-1.615.637a10.253 10.253 0 01-5.01.875l-1.47.025c-70.354-13.587-110.44-14.407-183.024 0l-1.458-.025a10.253 10.253 0 01-5.01-.875 22.059 22.059 0 00-1.761-.686c-3.98-2.541-6.924-7.54-6.924-13.779.001-41.202 28.179-74.671 64.001-79.655zm255.992 426.01H42.671v-27.989a15.645 15.645 0 018.337-13.805c4.013-2.111 19.709-10.44 20.054-10.625 6.683-3.539 11.6-6.111 16.336-8.531 12.502-6.389 22.554-11.081 32.057-14.861 9.232-3.672 17.891-6.441 26.412-8.391l24.737 26.743 27.069 29.277c4.116 4.452 9.526 6.672 14.945 6.842.282.009.564.005.846.003.131-.001.261.004.392.001 7.493-.191 14.819-4.282 18.572-11.788l23.58-47.16 23.58 47.16c3.752 7.505 11.075 11.596 18.566 11.789 5.825.152 11.752-2.053 16.182-6.843l51.817-56.02c8.505 1.947 17.15 4.711 26.364 8.372 9.514 3.78 19.577 8.475 32.086 14.866 4.791 2.448 9.768 5.051 16.555 8.645.244.132 15.804 8.388 19.866 10.525 5.096 2.683 8.313 8.017 8.313 13.803v27.987z"/></svg>