<svg xmlns="http://www.w3.org/2000/svg" viewBox="0 0 512.002 512.002"><path d="M482 304.582V105.003c0-.077-.01-.151-.011-.228a14.861 14.861 0 00-2.397-7.906c-.04-.061-.071-.125-.111-.186l-.024-.036-.035-.052L419.48 6.681A14.999 14.999 0 00407 .002H135a15.003 15.003 0 00-12.481 6.679L62.574 96.599a.826.826 0 00-.025.038l-.029.044c-.05.074-.088.153-.135.227a14.833 14.833 0 00-2.372 7.867c-.001.076-.011.15-.011.227v196.999H15c-8.284 0-15 6.716-15 15v180c0 8.284 6.716 15 15 15h60c13.471 0 25.57-5.958 33.824-15.368 15.761 4.43 51.723 15.368 102.239 15.368H347c32.874 0 64.275-15.701 84-41.999l72.013-96.015.002-.002c18.162-24.215 7.615-59.249-21.015-69.403zM331 30.002h67.973l40 60H331v-60zm-90 0h60v60h-60v-60zm0 90h60v77.972l-21.68-14.453a15 15 0 00-16.641 0L241 197.974v-77.972zm-97.972-90H211v60H103.028l40-60zM90 467.002c0 8.271-6.729 15-15 15H30v-150h45c8.271 0 15 6.729 15 15v120zm0-162.42v-184.58h121v106c0 11.97 13.377 19.11 23.32 12.481L271 214.03l36.68 24.453c9.914 6.611 23.32-.464 23.32-12.481v-106h121v184.602c-6.771 2.4-12.958 6.391-17.932 11.73l-44.087 47.328c-5.698-18.32-22.81-31.66-42.981-31.66h-71.295a39.848 39.848 0 01-26.339-9.939c-39.173-34.471-98.052-34.775-137.596-.954-5.329-7.546-12.914-13.386-21.77-16.527zm389.015 51.402l-.003.005L407 452.002c-14.089 18.785-36.519 30-60 30H211.063c-35.174 0-62.813-5.392-91.304-13.401.06-1.717.041 7.442.041-114.818l10.653-9.199c28.246-24.857 70.847-24.857 99.094 0a69.83 69.83 0 0046.158 17.417H347c8.271 0 15 6.729 15 15s-6.729 15-15 15H239c-8.284 0-15 6.716-15 15s6.716 15 15 15h118.054c12.444 0 24.446-5.222 32.928-14.327l66.038-70.892c2.872-3.083 6.771-4.78 10.98-4.78 12.357 0 19.375 14.171 12.015 23.982z"/><path d="M407 272.002h-60c-8.284 0-15 6.716-15 15s6.716 15 15 15h60c8.284 0 15-6.716 15-15s-6.716-15-15-15z"/></svg>